<svg width="104" height="104" viewBox="0 0 104 104" fill="none" xmlns="http://www.w3.org/2000/svg">
<path d="M51.9697 103.394C80.3207 103.394 103.304 80.4115 103.304 52.0605C103.304 23.7095 80.3207 0.726562 51.9697 0.726562C23.6187 0.726562 0.635742 23.7095 0.635742 52.0605C0.635742 80.4115 23.6187 103.394 51.9697 103.394Z" fill="#9900FF"/>
<path d="M63.6716 45.7282L67.6562 38.8353C67.8828 38.4388 67.738 37.9352 67.3415 37.7086C66.9512 37.4883 66.4539 37.6205 66.2273 38.0044L62.1986 44.9727C55.6961 42.052 48.2494 42.052 41.7469 44.9727L37.7182 38.0044C37.4853 37.6142 36.9754 37.482 36.5851 37.7212C36.2012 37.9541 36.069 38.445 36.2893 38.8353L40.2739 45.7282C33.4063 49.4421 28.7418 56.36 28.062 64.5181H75.8457C75.1533 56.3537 70.4763 49.4421 63.6716 45.7282ZM40.9537 57.7072C39.8584 57.7072 38.9709 56.8196 38.9709 55.7243C38.9709 54.629 39.8584 53.7414 40.9537 53.7414C42.049 53.7414 42.9366 54.629 42.9366 55.7243C42.9429 56.8196 42.0553 57.7072 40.9537 57.7072ZM62.954 57.7072C61.8587 57.7072 60.9711 56.8196 60.9711 55.7243C60.9711 54.629 61.8587 53.7414 62.954 53.7414C64.0493 53.7414 64.9369 54.629 64.9369 55.7243C64.9369 56.8196 64.0493 57.7072 62.954 57.7072Z" fill="white"/>
</svg>
