<svg width="27" height="28" viewBox="0 0 27 28" fill="none" xmlns="http://www.w3.org/2000/svg">
<path d="M13.6993 0.914062C6.42254 0.914062 0.518066 6.81224 0.518066 14.0953C0.518066 21.3721 6.41624 27.2766 13.6993 27.2766C20.9761 27.2766 26.8806 21.3784 26.8806 14.0953C26.8806 6.81224 20.9824 0.914062 13.6993 0.914062ZM19.9312 11.4578L14.524 18.1617L13.2461 19.748C12.988 20.069 12.5222 20.1192 12.2011 19.8611L7.5871 16.1411C7.26606 15.883 7.21567 15.4171 7.47376 15.0961L8.28581 14.0889C8.5439 13.7678 9.00973 13.7177 9.33077 13.9757L11.5276 15.7508C11.8487 16.0088 12.3144 15.9584 12.5725 15.6373L17.514 9.50638C17.7721 9.18535 18.2378 9.13488 18.5589 9.39297L19.8241 10.4128C20.1389 10.6772 20.1893 11.1431 19.9312 11.4578Z" fill="#002238"/>
</svg>
