<svg width="28" height="27" viewBox="0 0 28 27" fill="none" xmlns="http://www.w3.org/2000/svg">
<path d="M13.9083 26.7726C21.1881 26.7726 27.0896 20.8712 27.0896 13.5914C27.0896 6.31158 21.1881 0.410156 13.9083 0.410156C6.62847 0.410156 0.727051 6.31158 0.727051 13.5914C0.727051 20.8712 6.62847 26.7726 13.9083 26.7726Z" fill="#003558"/>
<path d="M17.6474 9.27463L18.2264 9.8537C18.5223 10.1496 18.5223 10.6216 18.2264 10.9175L16.08 13.0641C15.7841 13.36 15.7841 13.832 16.08 14.1279L18.2264 16.2745C18.5223 16.5704 18.5223 17.0424 18.2264 17.3383L17.6474 17.9174C17.3515 18.2132 16.8794 18.2132 16.5835 17.9174L14.437 15.7707C14.1412 15.4749 13.669 15.4749 13.3732 15.7707L11.2266 17.9174C10.9308 18.2132 10.4587 18.2132 10.1629 17.9174L9.58371 17.3383C9.28785 17.0424 9.28785 16.5704 9.58371 16.2745L11.7303 14.1279C12.0261 13.832 12.0261 13.36 11.7303 13.0641L9.58371 10.9175C9.28785 10.6216 9.28785 10.1496 9.58371 9.8537L10.1629 9.27463C10.4587 8.97877 10.9308 8.97877 11.2266 9.27463L13.3732 11.4212C13.669 11.7171 14.1412 11.7171 14.437 11.4212L16.5835 9.27463C16.8794 8.97877 17.3515 8.97877 17.6474 9.27463Z" fill="#F2F2F2"/>
</svg>
