<svg width="498" height="136" viewBox="0 0 498 136" fill="none" xmlns="http://www.w3.org/2000/svg">
<path d="M25.0101 27.2912C30.8454 27.2912 35.5728 22.375 35.5728 16.3194C35.5728 10.2638 30.8454 5.34766 25.0101 5.34766C19.1812 5.34766 14.4475 10.2638 14.4475 16.3194C14.4475 22.375 19.1812 27.2912 25.0101 27.2912Z" fill="#0A4063"/>
<path d="M49.182 33.7808C48.9302 31.6532 47.1236 30.004 44.9268 30.004H38.8775V29.9473L33.4073 30.004H28.5351V30.0544L24.9912 30.0922H24.9345H24.8779L21.3339 30.0544V30.004H16.4618L10.9916 29.9473V30.004H4.9423C2.74542 30.004 0.938814 31.6532 0.687022 33.7808C0.674433 33.7997 0.661812 33.8187 0.655518 33.8439V34.2908V42.1403V75.7859C1.32906 78.2346 3.66443 79.8146 6.12569 79.3739C8.10225 79.0151 8.02673 77.4541 8.46107 75.5342V42.1403H10.9979V111.824H10.7083V130.595C10.7083 133.39 13.6291 135.649 17.2297 135.649C20.8303 135.649 23.7448 133.383 23.7448 130.595V80.9287C24.0847 80.935 24.4184 80.9476 24.7583 80.9476V80.9539H24.8716H24.8779H24.9345H24.9912C24.9975 80.9539 24.9975 80.9539 24.9975 80.9539H25.1108V80.9476C25.4507 80.9476 25.7906 80.9413 26.1242 80.9287V130.595C26.1242 133.39 29.0387 135.649 32.6394 135.649C36.2337 135.649 39.1608 133.383 39.1608 130.595V111.824H38.8712V42.1403H41.408V75.5342C41.8423 77.4541 41.7668 79.0151 43.7433 79.3739C46.2046 79.8146 48.54 78.2409 49.2135 75.7859V42.1403V34.2908V33.8439C49.2072 33.8187 49.1946 33.7997 49.182 33.7808Z" fill="#0A4063"/>
<path d="M89.0029 26.5746C94.8381 26.5746 99.5655 21.6584 99.5655 15.6028C99.5655 9.5472 94.8381 4.63086 89.0029 4.63086C83.1739 4.63086 78.4402 9.5472 78.4402 15.6028C78.4402 21.6584 83.1739 26.5746 89.0029 26.5746Z" fill="#0A4063"/>
<path d="M113.175 33.064C112.923 30.9364 111.117 29.2872 108.92 29.2872H102.87V29.2305L97.4002 29.2872H92.528V29.3374L88.9841 29.3752H88.9274H88.8708L85.3268 29.3374V29.2872H80.4546L74.9845 29.2305V29.2872H68.9352C66.7383 29.2872 64.9317 30.9364 64.6799 33.064C64.6673 33.0829 64.6547 33.1017 64.6484 33.1269V33.5738V41.4235V75.0691C65.322 77.5178 67.6573 79.0978 70.1186 78.6571C72.0952 78.2983 72.0196 76.7372 72.454 74.8173V41.4235H74.9908V111.107H74.7012V129.878C74.7012 132.673 77.622 134.932 81.2226 134.932C84.8232 134.932 87.7377 132.666 87.7377 129.878V80.2119C88.0776 80.2182 88.4112 80.2308 88.7512 80.2308V80.2371H88.8645H88.8708H88.9274H88.9841C88.9904 80.2371 88.9904 80.2371 88.9904 80.2371H89.1037V80.2308C89.4436 80.2308 89.7835 80.2245 90.1172 80.2119V129.878C90.1172 132.673 93.0316 134.932 96.6322 134.932C100.227 134.932 103.154 132.666 103.154 129.878V111.107H102.864V41.4235H105.401V74.8173C105.835 76.7372 105.76 78.2983 107.736 78.6571C110.198 79.0978 112.533 77.5241 113.206 75.0691V41.4235V33.5738V33.1269C113.2 33.1017 113.188 33.0829 113.175 33.064Z" fill="#0A4063"/>
<path d="M152.996 25.8498C158.831 25.8498 163.558 20.9336 163.558 14.878C163.558 8.81614 158.831 3.90625 152.996 3.90625C147.167 3.90625 142.433 8.82243 142.433 14.878C142.439 20.9399 147.167 25.8498 152.996 25.8498Z" fill="#0A4063"/>
<path d="M177.168 32.3393C176.916 30.2116 175.109 28.5624 172.912 28.5624H166.863V28.5059L161.393 28.5624H156.521V28.6128L152.977 28.6506H152.92H152.863L149.32 28.6128V28.5624H144.447L138.977 28.5059V28.5624H132.928C130.731 28.5624 128.924 30.2116 128.673 32.3393C128.66 32.3582 128.647 32.3771 128.641 32.4023V32.8492V40.6988V74.3444C129.315 76.793 131.65 78.3732 134.111 77.9325C136.088 77.5737 136.012 76.0126 136.447 74.0926V40.6988H138.983V110.382H138.694V129.153C138.694 131.948 141.615 134.208 145.215 134.208C148.816 134.208 151.73 131.942 151.73 129.153V79.4873C152.07 79.4936 152.404 79.5062 152.744 79.5062V79.5124H152.857H152.863H152.92H152.977C152.983 79.5124 152.983 79.5124 152.983 79.5124H153.096V79.5062C153.436 79.5062 153.776 79.4999 154.11 79.4873V129.153C154.11 131.948 157.024 134.208 160.625 134.208C164.219 134.208 167.146 131.942 167.146 129.153V110.382H166.857V40.6988H169.394V74.0926C169.828 76.0126 169.752 77.5737 171.729 77.9325C174.19 78.3732 176.526 76.7993 177.199 74.3444V40.6988V32.8492V32.4023C177.193 32.3834 177.18 32.3645 177.168 32.3393Z" fill="#0A4063"/>
<path d="M216.988 25.1331C222.824 25.1331 227.551 20.217 227.551 14.1614C227.551 8.10579 222.824 3.18945 216.988 3.18945C211.159 3.18945 206.426 8.10579 206.426 14.1614C206.426 20.217 211.159 25.1331 216.988 25.1331Z" fill="#9900FF"/>
<path d="M241.16 31.6226C240.909 29.495 239.102 27.8458 236.905 27.8458H230.856V27.7891L225.386 27.8458H220.513V27.896L216.969 27.9338H216.913H216.856L213.312 27.896V27.8458H208.44L202.97 27.7891V27.8458H196.921C194.724 27.8458 192.917 29.495 192.665 31.6226C192.653 31.6415 192.64 31.6603 192.634 31.6855V32.1326V39.9821V73.6277C193.307 76.0764 195.643 77.6564 198.104 77.2157C200.081 76.8569 200.005 75.2958 200.439 73.3759V39.9821H202.976V109.665H202.687V128.436C202.687 131.231 205.607 133.491 209.208 133.491C212.809 133.491 215.723 131.225 215.723 128.436V78.7705C216.063 78.7768 216.397 78.7894 216.737 78.7894V78.7957H216.85H216.856H216.913H216.969C216.976 78.7957 216.976 78.7957 216.976 78.7957H217.089V78.7894C217.429 78.7894 217.769 78.7831 218.103 78.7705V128.436C218.103 131.231 221.017 133.491 224.618 133.491C228.212 133.491 231.139 131.225 231.139 128.436V109.665H230.849V39.9821H233.386V73.3759C233.821 75.2958 233.745 76.8569 235.722 77.2157C238.183 77.6564 240.518 76.0827 241.192 73.6277V39.9821V32.1326V31.6855C241.185 31.6666 241.173 31.6415 241.16 31.6226Z" fill="#9900FF"/>
<path d="M280.981 24.4163C286.817 24.4163 291.544 19.5 291.544 13.4444C291.544 7.38884 286.817 2.47266 280.981 2.47266C275.152 2.47266 270.419 7.38884 270.419 13.4444C270.419 19.5 275.152 24.4163 280.981 24.4163Z" fill="#0A4063"/>
<path d="M305.153 30.9057C304.901 28.7781 303.095 27.1288 300.898 27.1288H294.849V27.0723L289.378 27.1288H284.506V27.1792L280.962 27.217H280.906H280.849L277.305 27.1792V27.1288H272.433L266.963 27.0723V27.1288H260.913C258.717 27.1288 256.91 28.7781 256.658 30.9057C256.646 30.9246 256.633 30.9435 256.627 30.9687V31.4156V39.2652V72.9108C257.3 75.3595 259.636 76.9396 262.097 76.4989C264.073 76.1401 263.998 74.579 264.432 72.6591V39.2652H266.969V108.948H266.679V127.72C266.679 130.514 269.6 132.774 273.201 132.774C276.801 132.774 279.716 130.508 279.716 127.72V78.0537C280.056 78.06 280.39 78.0726 280.729 78.0726V78.0789H280.843H280.849H280.906H280.962C280.969 78.0789 280.969 78.0789 280.969 78.0789H281.082V78.0726C281.422 78.0726 281.762 78.0663 282.095 78.0537V127.72C282.095 130.514 285.01 132.774 288.611 132.774C292.205 132.774 295.132 130.508 295.132 127.72V108.948H294.842V39.2652H297.379V72.6591C297.813 74.579 297.738 76.1401 299.715 76.4989C302.176 76.9396 304.511 75.3657 305.185 72.9108V39.2652V31.4156V30.9687C305.178 30.9435 305.166 30.9246 305.153 30.9057Z" fill="#0A4063"/>
<path d="M344.974 23.6974C350.809 23.6974 355.537 18.7813 355.537 12.7257C355.537 6.6638 350.809 1.75391 344.974 1.75391C339.145 1.75391 334.412 6.67009 334.412 12.7257C334.418 18.7813 339.145 23.6974 344.974 23.6974Z" fill="#0A4063"/>
<path d="M369.146 30.1871C368.894 28.0595 367.088 26.4102 364.891 26.4102H358.842V26.3535L353.371 26.4102H348.499V26.4606L344.955 26.4983H344.899H344.842L341.298 26.4606V26.4102H336.426L330.956 26.3535V26.4102H324.906C322.709 26.4102 320.903 28.0595 320.651 30.1871C320.638 30.206 320.626 30.2249 320.62 30.2501V30.697V38.5466V72.1922C321.293 74.6409 323.628 76.2208 326.09 75.7802C328.066 75.4214 327.991 73.8604 328.425 71.9405V38.5466H330.962V108.23H330.672V127.001C330.672 129.796 333.593 132.056 337.194 132.056C340.794 132.056 343.709 129.79 343.709 127.001V77.335C344.049 77.3413 344.382 77.3539 344.722 77.3539V77.3602H344.836H344.842H344.899H344.955C344.962 77.3602 344.962 77.3602 344.962 77.3602H345.075V77.3539C345.415 77.3539 345.755 77.3476 346.088 77.335V127.001C346.088 129.796 349.003 132.056 352.603 132.056C356.198 132.056 359.125 129.79 359.125 127.001V108.23H358.835V38.5466H361.372V71.9405C361.806 73.8604 361.731 75.4214 363.707 75.7802C366.169 76.2208 368.504 74.6472 369.178 72.1922V38.5466V30.697V30.2501C369.171 30.2249 369.159 30.206 369.146 30.1871Z" fill="#0A4063"/>
<path d="M408.967 22.9749C414.802 22.9749 419.529 18.0586 419.529 12.003C419.529 5.94743 414.802 1.03125 408.967 1.03125C403.138 1.03125 398.404 5.94743 398.404 12.003C398.404 18.0586 403.138 22.9749 408.967 22.9749Z" fill="#0A4063"/>
<path d="M433.139 29.4701C432.887 27.3425 431.08 25.6933 428.884 25.6933H422.834V25.6367L417.364 25.6933H412.492V25.7437L408.948 25.7815H408.891H408.835L405.291 25.7437V25.6933H400.419L394.948 25.6367V25.6933H388.899C386.702 25.6933 384.896 27.3425 384.644 29.4701C384.631 29.489 384.619 29.508 384.612 29.5332V29.9801V37.8296V71.4754C385.286 73.9241 387.621 75.504 390.082 75.0634C392.059 74.7046 391.983 73.1434 392.418 71.2235V37.8296H394.955V107.513H394.665V126.284C394.665 129.079 397.586 131.339 401.186 131.339C404.787 131.339 407.702 129.073 407.702 126.284V76.6182C408.041 76.6245 408.375 76.6371 408.715 76.6371V76.6434H408.828H408.835H408.891H408.948C408.954 76.6434 408.954 76.6434 408.954 76.6434H409.068V76.6371C409.407 76.6371 409.747 76.6308 410.081 76.6182V126.284C410.081 129.079 412.995 131.339 416.596 131.339C420.19 131.339 423.117 129.073 423.117 126.284V107.513H422.828V37.8296H425.365V71.2235C425.799 73.1434 425.724 74.7046 427.7 75.0634C430.161 75.504 432.497 73.9304 433.17 71.4754V37.8296V29.9801V29.5332C433.164 29.508 433.151 29.489 433.139 29.4701Z" fill="#0A4063"/>
<path d="M472.96 22.256C478.795 22.256 483.522 17.3399 483.522 11.2843C483.522 5.22868 478.795 0.3125 472.96 0.3125C467.131 0.3125 462.397 5.22868 462.397 11.2843C462.397 17.3399 467.131 22.256 472.96 22.256Z" fill="#0A4063"/>
<path d="M497.132 28.7457C496.88 26.6181 495.073 24.9688 492.876 24.9688H486.827V24.9121L481.357 24.9688H476.485V25.0192L472.941 25.057H472.884H472.827L469.283 25.0192V24.9688H464.411L458.941 24.9121V24.9688H452.892C450.695 24.9688 448.888 26.6181 448.636 28.7457C448.624 28.7646 448.611 28.7835 448.605 28.8087V29.2556V37.1052V70.7508C449.279 73.1995 451.614 74.7794 454.075 74.3388C456.052 73.98 455.976 72.419 456.411 70.4991V37.1052H458.947V106.788H458.658V125.56C458.658 128.354 461.579 130.614 465.179 130.614C468.78 130.614 471.694 128.348 471.694 125.56V75.8936C472.034 75.8999 472.368 75.9125 472.708 75.9125V75.9188H472.821H472.827H472.884H472.941C472.947 75.9188 472.947 75.9188 472.947 75.9188H473.06V75.9125C473.4 75.9125 473.74 75.9062 474.074 75.8936V125.56C474.074 128.354 476.988 130.614 480.589 130.614C484.183 130.614 487.11 128.348 487.11 125.56V106.788H486.821V37.1052H489.357V70.4991C489.792 72.419 489.716 73.98 491.693 74.3388C494.154 74.7794 496.489 73.2057 497.163 70.7508V37.1052V29.2556V28.8087C497.157 28.7898 497.144 28.7709 497.132 28.7457Z" fill="#0A4063"/>
</svg>
