<svg width="103" height="104" viewBox="0 0 103 104" fill="none" xmlns="http://www.w3.org/2000/svg">
<path d="M51.3516 103.394C79.7026 103.394 102.686 80.4115 102.686 52.0605C102.686 23.7095 79.7026 0.726562 51.3516 0.726562C23.0006 0.726562 0.0175781 23.7095 0.0175781 52.0605C0.0175781 80.4115 23.0006 103.394 51.3516 103.394Z" fill="#072B42"/>
<path d="M55.0907 44.9922C54.3165 45.5084 51.8741 46.8303 51.5027 47.1828C50.9173 47.7493 49.992 47.7493 49.4066 47.1828C49.0415 46.8869 46.5928 45.4895 45.8185 44.9922C45.0443 44.4949 44.9939 43.7081 45.9633 43.2989C48.84 42.0463 52.1134 42.0463 54.9901 43.2989C55.8902 43.6829 55.928 44.4005 54.9901 44.9545M68.2721 58.3434C66.5851 54.5162 64.2245 51.0226 61.3037 48.0263C60.3721 47.0569 59.6985 45.8671 59.3523 44.5704C59.1698 43.9661 59.0376 43.3367 58.9117 42.7324C58.6788 41.0643 58.2507 39.4276 57.6276 37.8602C56.4315 35.0402 53.6304 33.2398 50.5648 33.3216C47.4804 33.2083 44.6225 34.9457 43.3006 37.7343C42.9229 38.5211 42.6397 39.3458 42.4571 40.1956C42.1424 41.593 41.8717 43.0471 41.5381 44.4634C41.2549 45.672 40.6128 46.7673 39.7 47.6045C36.7792 50.4561 34.3684 53.7797 32.5681 57.4433C32.2974 57.9658 32.0707 58.5071 31.8882 59.061C31.542 60.2759 32.4233 61.1194 33.7263 60.8991C34.5383 60.7355 35.3441 60.5655 36.1183 60.3263C36.8926 60.0871 37.1632 60.3263 37.3521 60.9684C38.4537 64.8271 41.3619 67.9115 45.145 69.2397C52.7177 72.1101 61.5618 68.0248 63.5321 60.8173C63.658 60.32 63.8468 60.1374 64.3945 60.32C65.238 60.5781 66.1066 60.7606 66.969 60.9621C67.6677 61.1698 68.4043 60.767 68.612 60.0619C68.6372 59.9738 68.656 59.8794 68.6623 59.7849C68.6812 59.3191 68.5805 58.8596 68.3665 58.4441" fill="white"/>
</svg>
