<svg width="104" height="104" viewBox="0 0 104 104" fill="none" xmlns="http://www.w3.org/2000/svg">
<path d="M51.6923 103.394C80.0433 103.394 103.026 80.4115 103.026 52.0605C103.026 23.7095 80.0433 0.726562 51.6923 0.726562C23.3414 0.726562 0.358398 23.7095 0.358398 52.0605C0.358398 80.4115 23.3414 103.394 51.6923 103.394Z" fill="#072B42"/>
<path d="M67.4293 35.7188H38.3348C37.4661 35.7188 36.7359 36.4489 36.7359 37.3428V58.3107V58.317C36.7296 59.2046 37.4472 59.9348 38.3348 59.9411H49.6528V63.1703L46.4173 64.7943L46.4236 66.3995H59.3405V64.7818L56.1113 63.164V59.9348H67.4293C68.2979 59.9348 69.0282 59.2046 69.0282 58.3107V37.3428C69.0282 36.4426 68.3105 35.7188 67.4293 35.7188ZM53.2975 40.2762C53.9459 39.4264 54.846 39.4201 54.846 39.4201C54.846 39.4201 54.9782 40.2195 54.3362 40.9938C53.65 41.8184 52.8694 41.6862 52.8694 41.6862C52.8694 41.6862 52.7184 41.0315 53.2975 40.2762ZM51.2391 41.8121C51.9819 41.8121 52.561 42.2401 52.9513 42.2401C53.2849 42.2401 53.9018 41.7806 54.7075 41.7806C56.0924 41.7806 56.6337 42.7626 56.6337 42.7626C56.6337 42.7626 55.5699 43.304 55.5699 44.6259C55.5699 46.1178 56.8981 46.6276 56.8981 46.6276C56.8981 46.6276 55.9728 49.2336 54.7201 49.2336C54.1473 49.2336 53.7003 48.8434 53.0897 48.8434C52.4728 48.8434 51.8623 49.2462 51.4594 49.2462C50.3137 49.2462 48.8722 46.7724 48.8722 44.7833C48.866 42.8382 50.0934 41.8121 51.2391 41.8121ZM65.7989 56.7118H39.9651V53.4826H65.7989V56.7118Z" fill="white"/>
</svg>
