<svg width="103" height="104" viewBox="0 0 103 104" fill="none" xmlns="http://www.w3.org/2000/svg">
<path d="M51.5252 103.394C79.8761 103.394 102.859 80.4115 102.859 52.0605C102.859 23.7095 79.8761 0.726562 51.5252 0.726562C23.1742 0.726562 0.191162 23.7095 0.191162 52.0605C0.191162 80.4115 23.1742 103.394 51.5252 103.394Z" fill="#072B42"/>
<path d="M64.3979 52.9351V66.8717C64.3979 68.4769 63.0572 69.7421 61.4898 69.6792L61.238 69.6604L47.528 67.9481V52.9351H64.3979ZM43.7763 52.9351V67.476L33.9375 66.2486C32.0617 66.0157 30.6516 64.4168 30.6516 62.5283V52.9351H43.7763ZM61.238 32.4581C62.8306 32.2567 64.2532 33.4275 64.3854 34.9949L64.3979 35.2467V49.1834H47.528V34.1704L61.238 32.4581ZM43.7763 34.6425V49.1834H30.6516V39.5902C30.6516 37.7017 32.0617 36.1028 33.9375 35.8699L43.7763 34.6425Z" fill="white"/>
</svg>
