<svg width="28" height="28" viewBox="0 0 28 28" fill="none" xmlns="http://www.w3.org/2000/svg">
<path d="M27.305 14.0771C27.305 21.4957 21.2891 27.5116 13.8705 27.5116C6.45191 27.5116 0.436035 21.4957 0.436035 14.0771C0.436035 6.65849 6.45191 0.642578 13.8705 0.642578C21.2953 0.642578 27.305 6.65849 27.305 14.0771Z" fill="#111114"/>
<path d="M17.5174 7.02637H10.2297C8.35326 7.02637 6.82593 8.5475 6.82593 10.4302V17.7179C6.82593 19.5944 8.34703 21.1217 10.2297 21.1217H17.5174C19.3938 21.1217 20.9212 19.6006 20.9212 17.7179V10.4302C20.9212 8.55374 19.3938 7.02637 17.5174 7.02637ZM19.7056 17.4747C19.7056 18.8151 18.6146 19.9061 17.2743 19.9061H10.4729C9.13253 19.9061 8.04155 18.8151 8.04155 17.4747V10.6733C8.04155 9.33301 9.13253 8.24203 10.4729 8.24203H17.2743C18.6146 8.24203 19.7056 9.33301 19.7056 10.6733V17.4747Z" fill="white"/>
<path d="M13.8828 10.4307C11.8692 10.4307 10.2358 12.064 10.2358 14.0776C10.2358 16.0912 11.8692 17.7246 13.8828 17.7246C15.8964 17.7246 17.5297 16.0912 17.5297 14.0776C17.5235 12.064 15.8902 10.4307 13.8828 10.4307ZM13.8828 16.5027C12.5424 16.5027 11.4515 15.4117 11.4515 14.0714C11.4515 12.731 12.5424 11.6401 13.8828 11.6401C15.2231 11.6401 16.3141 12.731 16.3141 14.0714C16.3141 15.4117 15.2169 16.5027 13.8828 16.5027Z" fill="white"/>
<path d="M17.7667 10.9158C18.1695 10.9158 18.4961 10.5892 18.4961 10.1864C18.4961 9.78358 18.1695 9.45703 17.7667 9.45703C17.3639 9.45703 17.0374 9.78358 17.0374 10.1864C17.0374 10.5892 17.3639 10.9158 17.7667 10.9158Z" fill="white"/>
</svg>
