<svg width="28" height="28" viewBox="0 0 28 28" fill="none" xmlns="http://www.w3.org/2000/svg">
<path d="M27.7001 14.0771C27.7001 21.4957 21.6842 27.5116 14.2656 27.5116C6.847 27.5116 0.831055 21.4957 0.831055 14.0771C0.831055 6.65849 6.847 0.642578 14.2656 0.642578C21.6842 0.642578 27.7001 6.65849 27.7001 14.0771Z" fill="#111114"/>
<path d="M22.2331 13.4657C22.2331 12.4683 21.4227 11.6578 20.4252 11.6578C19.9452 11.6578 19.5088 11.8449 19.1846 12.1503C18.0999 11.2963 16.6348 10.7352 15.0015 10.5981L15.9304 7.81763L18.2682 8.98965C18.2619 9.03329 18.2558 9.07067 18.2558 9.12054C18.2558 9.71902 18.742 10.2053 19.3405 10.2053C19.939 10.2053 20.4252 9.71902 20.4252 9.12054C20.4252 8.52207 19.939 8.03581 19.3405 8.03581C19.0475 8.03581 18.7856 8.15425 18.5861 8.34128L16.2297 7.16306C16.0551 7.06955 15.8431 7.06329 15.6561 7.1381C15.4691 7.21291 15.3194 7.36876 15.2571 7.56201L14.2534 10.5731C12.3333 10.5793 10.6003 11.1841 9.35966 12.1503C9.03549 11.8449 8.59911 11.6578 8.11908 11.6578C7.12162 11.6578 6.30493 12.4683 6.30493 13.4657C6.30493 14.2325 6.7787 14.8871 7.45199 15.149C7.41458 15.3671 7.3959 15.5916 7.3959 15.816C7.3959 18.7149 10.4756 21.0651 14.2784 21.0651C18.0812 21.0651 21.1608 18.7149 21.1608 15.816C21.1608 15.5853 21.1421 15.3671 21.1047 15.149C21.7593 14.8809 22.2331 14.2263 22.2331 13.4657ZM10.6438 14.9121C10.6438 14.3136 11.1301 13.8273 11.7286 13.8273C12.3271 13.8273 12.8133 14.3136 12.8133 14.9121C12.8133 15.5105 12.3271 15.9968 11.7286 15.9968C11.1301 15.9968 10.6438 15.5105 10.6438 14.9121ZM17.1024 18.0104C17.0712 18.0603 16.2484 19.2572 14.2659 19.2572C12.2835 19.2572 11.4605 18.0603 11.4294 18.0104C11.3171 17.8421 11.3608 17.6176 11.5291 17.5117C11.6974 17.3995 11.9218 17.4493 12.034 17.6114C12.059 17.6488 12.6949 18.5403 14.2659 18.5403C15.8369 18.5403 16.4728 17.6488 16.4977 17.6114C16.6099 17.4493 16.8344 17.4057 17.0027 17.5179C17.1648 17.6239 17.2084 17.8483 17.1024 18.0104ZM16.7969 15.9968C16.1984 15.9968 15.7122 15.5105 15.7122 14.9121C15.7122 14.3136 16.1984 13.8273 16.7969 13.8273C17.3954 13.8273 17.8816 14.3136 17.8816 14.9121C17.8816 15.5105 17.4016 15.9968 16.7969 15.9968Z" fill="white"/>
</svg>
