<svg width="28" height="28" viewBox="0 0 28 28" fill="none" xmlns="http://www.w3.org/2000/svg">
<path d="M27.4188 14.0771C27.4188 21.4957 21.4029 27.5116 13.9843 27.5116C6.56575 27.5116 0.549805 21.4957 0.549805 14.0771C0.549805 6.65849 6.56575 0.642578 13.9843 0.642578C21.4029 0.642578 27.4188 6.65849 27.4188 14.0771Z" fill="#111114"/>
<path d="M13.9409 5.4681C9.78896 5.60525 6.36021 8.96544 6.15448 13.1111C6.07967 14.6073 6.41012 16.0225 7.05223 17.2506L6.14824 21.284C6.11084 21.4648 6.27292 21.6269 6.45371 21.5895L10.4872 20.6856C11.7091 21.3215 13.1055 21.6519 14.5893 21.5833C18.7287 21.39 22.1076 17.9862 22.2634 13.8467C22.4504 9.15869 18.6227 5.31848 13.9409 5.4681ZM14.209 19.9312C13.037 19.9312 11.9335 19.6133 10.9922 19.0585C10.9049 19.0086 10.8176 18.9525 10.7303 18.9026L8.14944 19.5884L8.83518 17.0074C8.18683 16.0038 7.80654 14.813 7.80654 13.5288C7.80654 10.0003 10.6805 7.13259 14.2027 7.13259C17.7312 7.13259 20.5989 10.0065 20.5989 13.5288C20.6052 17.0573 17.7313 19.9312 14.209 19.9312Z" fill="white"/>
<path d="M17.9993 16.3464C17.8871 16.5147 17.7687 16.6706 17.5817 16.8576C17.1702 17.2691 16.6029 17.4748 16.0231 17.4125C14.9883 17.3065 13.517 16.7329 12.2577 15.4736C10.9922 14.2081 10.4249 12.7431 10.3189 11.7082C10.2628 11.1285 10.4685 10.5612 10.8738 10.1497C11.0608 9.96268 11.2166 9.84425 11.3849 9.73203C11.6966 9.52007 12.1143 9.66347 12.2327 10.0126L12.6567 11.2843C12.7751 11.6334 12.719 11.8516 12.5694 12.0013L12.2327 12.3441C12.0644 12.5124 12.0395 12.7681 12.1642 12.9738C12.3512 13.2668 12.7003 13.7343 13.3487 14.3827C13.997 15.031 14.4646 15.3801 14.7576 15.5672C14.9571 15.6981 15.2189 15.6669 15.3872 15.4986L15.7301 15.1619C15.8797 15.0123 16.0979 14.9562 16.447 15.0747L17.7188 15.4986C18.0741 15.617 18.2113 16.0409 17.9993 16.3464Z" fill="white"/>
</svg>
